<svg height="55.993355mm" viewBox="0 0 423.4129 55.993355" width="423.4129mm" xmlns="http://www.w3.org/2000/svg"><g transform="translate(139.0956 -75.739119)"><path d="m-139.09524 75.751647.0105 9.558758s18.91559 9.596515 41.477158 11.805039c23.542693 2.304565 57.47531-6.379738 69.259387-7.290287 11.779291-.91018 26.836758-3.131076 39.6875-3.023809 18.520834.154595 40.564389 5.845899 56.696427 13.651032 24.759896 11.97953 38.943428 27.90361 65.767858 30.99405 25.73065 2.96443 46.33552-18.04466 87.69047-20.00981 51.9605-2.46912 62.74403 9.77606 62.74403 9.77606l.00001-45.461033z" fill="#ff1c7f" fill-opacity=".941176"/><path d="m-139.0956 75.751647.00023 1.212762s26.05943 11.07199 46.29232 14.347998c6.131983.99286 26.45225 2.278747 36.84821 1.14053 16.020566-1.754036 42.080495-4.426157 54.5245598-5.283208 15.0992742-1.039922 39.8506502-.904882 62.8751552 3.57473 31.626216 6.153147 39.493435 16.827221 71.106225 23.574011 27.45071 5.85851 61.60562-22.584278 86.72896-23.920625 25.12333-1.336348 39.2875 1.915518 49.96533 6.262244 10.67782 4.346721 14.9927 7.933121 14.9927 7.933121l.0792-28.854091z" fill="#fff"/></g></svg>